<?xml version="1.0" standalone="no"?>
<!DOCTYPE svg PUBLIC "-//W3C//DTD SVG 20010904//EN"
        "http://www.w3.org/TR/2001/REC-SVG-20010904/DTD/svg10.dtd">
<svg version="1.0" xmlns="http://www.w3.org/2000/svg"
     width="512.000000pt" height="512.000000pt" viewBox="0 0 512.000000 512.000000"
     preserveAspectRatio="xMidYMid meet">
    <metadata>
        Created by potrace 1.11, written by Peter Selinger 2001-2013
    </metadata>
    <g transform="translate(0.000000,512.000000) scale(0.100000,-0.100000)"
       fill="#000000" stroke="none">
        <path d="M3040 3423 c-73 -119 -260 -282 -412 -359 l-68 -34 0 -100 c0 -55 4
-100 9 -100 36 0 247 119 347 196 39 30 74 54 78 54 3 0 6 -310 6 -690 l0
-690 105 0 105 0 0 890 0 890 -67 0 -68 0 -35 -57z"/>
        <path d="M4204 3466 c-203 -39 -366 -200 -420 -416 -25 -99 -16 -302 18 -397
129 -362 575 -468 844 -199 l64 64 0 -68 c0 -87 -23 -215 -55 -309 -64 -190
-188 -291 -354 -291 -148 0 -238 68 -282 212 -18 60 -24 67 -42 63 -12 -2 -57
-7 -99 -10 -51 -4 -78 -11 -78 -19 0 -6 7 -38 15 -69 59 -225 231 -351 480
-351 165 0 292 51 400 160 151 152 212 349 222 715 8 295 -15 452 -89 608
-110 230 -366 356 -624 307z m273 -196 c147 -74 228 -245 207 -440 -23 -218
-153 -350 -344 -350 -93 0 -165 28 -235 91 -96 89 -139 224 -116 375 40 268
281 428 488 324z"/>
        <path d="M320 2585 l0 -885 115 0 115 0 0 885 0 885 -115 0 -115 0 0 -885z"/>
        <path d="M990 2585 l0 -885 110 0 110 0 2 403 3 402 413 3 412 2 0 100 0 100
-415 0 -415 0 2 278 3 277 478 3 477 2 0 100 0 100 -590 0 -590 0 0 -885z"/>
    </g>
</svg>
